<svg xmlns="http://www.w3.org/2000/svg" width="1320" height="470" viewBox="0 0 1320 470">
<style>
text{font-family:Arial,Helvetica,sans-serif;fill:#1f1f1f}
.title{font-size:22px;font-weight:700}
.panel-title{font-size:15px;font-weight:700}
.axis{stroke:#333;stroke-width:1}
.grid{stroke:#d8d8d8;stroke-width:1}
.tick{font-size:11px;fill:#555}
.value{font-size:11px;font-weight:700}
</style>
<rect x="0" y="0" width="100%" height="100%" fill="#ffffff"/>
<text class="title" x="660" y="34" text-anchor="middle">Cenhap Strength by Core Centromere</text>
<text class="panel-title" x="251.0" y="61" text-anchor="middle">Non-redundant cenhap units</text>
<line class="axis" x1="62.0" y1="359" x2="440.0" y2="359"/>
<line class="axis" x1="62.0" y1="74" x2="62.0" y2="359"/>
<line class="grid" x1="62.0" y1="359.0" x2="440.0" y2="359.0"/>
<text class="tick" x="54.0" y="363.0" text-anchor="end">0</text>
<line class="grid" x1="62.0" y1="287.3" x2="440.0" y2="287.3"/>
<text class="tick" x="54.0" y="291.3" text-anchor="end">43</text>
<line class="grid" x1="62.0" y1="215.7" x2="440.0" y2="215.7"/>
<text class="tick" x="54.0" y="219.7" text-anchor="end">86</text>
<line class="grid" x1="62.0" y1="144.0" x2="440.0" y2="144.0"/>
<text class="tick" x="54.0" y="148.0" text-anchor="end">129</text>
<line class="grid" x1="62.0" y1="74.0" x2="440.0" y2="74.0"/>
<text class="tick" x="54.0" y="78.0" text-anchor="end">171</text>
<rect x="74.0" y="237.3" width="61.2" height="121.7" fill="#2f6f73" stroke="#222" stroke-width="0.7"/>
<text class="value" x="104.6" y="230.3" text-anchor="middle">73</text>
<text class="tick" x="104.6" y="378" text-anchor="middle">CEN1</text>
<rect x="147.2" y="240.7" width="61.2" height="118.3" fill="#2f6f73" stroke="#222" stroke-width="0.7"/>
<text class="value" x="177.8" y="233.7" text-anchor="middle">71</text>
<text class="tick" x="177.8" y="378" text-anchor="middle">CEN2</text>
<rect x="220.4" y="159.0" width="61.2" height="200.0" fill="#2f6f73" stroke="#222" stroke-width="0.7"/>
<text class="value" x="251.0" y="152.0" text-anchor="middle">120</text>
<text class="tick" x="251.0" y="378" text-anchor="middle">CEN3</text>
<rect x="293.6" y="219.0" width="61.2" height="140.0" fill="#2f6f73" stroke="#222" stroke-width="0.7"/>
<text class="value" x="324.2" y="212.0" text-anchor="middle">84</text>
<text class="tick" x="324.2" y="378" text-anchor="middle">CEN4</text>
<rect x="366.8" y="74.0" width="61.2" height="285.0" fill="#2f6f73" stroke="#222" stroke-width="0.7"/>
<text class="value" x="397.4" y="67.0" text-anchor="middle">171</text>
<text class="tick" x="397.4" y="378" text-anchor="middle">CEN5</text>
<text class="tick" x="251.0" y="402" text-anchor="middle">Core centromere</text>
<text class="panel-title" x="675.0" y="61" text-anchor="middle">Selected distinct k-mers</text>
<line class="axis" x1="486.0" y1="359" x2="864.0" y2="359"/>
<line class="axis" x1="486.0" y1="74" x2="486.0" y2="359"/>
<line class="grid" x1="486.0" y1="359.0" x2="864.0" y2="359.0"/>
<text class="tick" x="478.0" y="363.0" text-anchor="end">0</text>
<line class="grid" x1="486.0" y1="287.8" x2="864.0" y2="287.8"/>
<text class="tick" x="478.0" y="291.8" text-anchor="end">1,165</text>
<line class="grid" x1="486.0" y1="216.5" x2="864.0" y2="216.5"/>
<text class="tick" x="478.0" y="220.5" text-anchor="end">2,330</text>
<line class="grid" x1="486.0" y1="145.2" x2="864.0" y2="145.2"/>
<text class="tick" x="478.0" y="149.2" text-anchor="end">3,495</text>
<line class="grid" x1="486.0" y1="74.0" x2="864.0" y2="74.0"/>
<text class="tick" x="478.0" y="78.0" text-anchor="end">4,660</text>
<rect x="498.0" y="139.1" width="61.2" height="219.9" fill="#9b5d2e" stroke="#222" stroke-width="0.7"/>
<text class="value" x="528.6" y="132.1" text-anchor="middle">3,595</text>
<text class="tick" x="528.6" y="378" text-anchor="middle">CEN1</text>
<rect x="571.2" y="235.0" width="61.2" height="124.0" fill="#9b5d2e" stroke="#222" stroke-width="0.7"/>
<text class="value" x="601.8" y="228.0" text-anchor="middle">2,027</text>
<text class="tick" x="601.8" y="378" text-anchor="middle">CEN2</text>
<rect x="644.4" y="133.3" width="61.2" height="225.7" fill="#9b5d2e" stroke="#222" stroke-width="0.7"/>
<text class="value" x="675.0" y="126.3" text-anchor="middle">3,690</text>
<text class="tick" x="675.0" y="378" text-anchor="middle">CEN3</text>
<rect x="717.6" y="203.3" width="61.2" height="155.7" fill="#9b5d2e" stroke="#222" stroke-width="0.7"/>
<text class="value" x="748.2" y="196.3" text-anchor="middle">2,546</text>
<text class="tick" x="748.2" y="378" text-anchor="middle">CEN4</text>
<rect x="790.8" y="74.0" width="61.2" height="285.0" fill="#9b5d2e" stroke="#222" stroke-width="0.7"/>
<text class="value" x="821.4" y="67.0" text-anchor="middle">4,660</text>
<text class="tick" x="821.4" y="378" text-anchor="middle">CEN5</text>
<text class="tick" x="675.0" y="402" text-anchor="middle">Core centromere</text>
<text class="panel-title" x="1099.0" y="61" text-anchor="middle">Assigned core-CEN map hits</text>
<line class="axis" x1="910.0" y1="359" x2="1288.0" y2="359"/>
<line class="axis" x1="910.0" y1="74" x2="910.0" y2="359"/>
<line class="grid" x1="910.0" y1="359.0" x2="1288.0" y2="359.0"/>
<text class="tick" x="902.0" y="363.0" text-anchor="end">0</text>
<line class="grid" x1="910.0" y1="287.7" x2="1288.0" y2="287.7"/>
<text class="tick" x="902.0" y="291.7" text-anchor="end">56,354</text>
<line class="grid" x1="910.0" y1="216.5" x2="1288.0" y2="216.5"/>
<text class="tick" x="902.0" y="220.5" text-anchor="end">112,708</text>
<line class="grid" x1="910.0" y1="145.2" x2="1288.0" y2="145.2"/>
<text class="tick" x="902.0" y="149.2" text-anchor="end">169,062</text>
<line class="grid" x1="910.0" y1="74.0" x2="1288.0" y2="74.0"/>
<text class="tick" x="902.0" y="78.0" text-anchor="end">225,414</text>
<rect x="922.0" y="74.0" width="61.2" height="285.0" fill="#5f6f95" stroke="#222" stroke-width="0.7"/>
<text class="value" x="952.6" y="67.0" text-anchor="middle">225,414</text>
<text class="tick" x="952.6" y="378" text-anchor="middle">CEN1</text>
<rect x="995.2" y="148.3" width="61.2" height="210.7" fill="#5f6f95" stroke="#222" stroke-width="0.7"/>
<text class="value" x="1025.8" y="141.3" text-anchor="middle">166,624</text>
<text class="tick" x="1025.8" y="378" text-anchor="middle">CEN2</text>
<rect x="1068.4" y="169.1" width="61.2" height="189.9" fill="#5f6f95" stroke="#222" stroke-width="0.7"/>
<text class="value" x="1099.0" y="162.1" text-anchor="middle">150,232</text>
<text class="tick" x="1099.0" y="378" text-anchor="middle">CEN3</text>
<rect x="1141.6" y="171.6" width="61.2" height="187.4" fill="#5f6f95" stroke="#222" stroke-width="0.7"/>
<text class="value" x="1172.2" y="164.6" text-anchor="middle">148,193</text>
<text class="tick" x="1172.2" y="378" text-anchor="middle">CEN4</text>
<rect x="1214.8" y="152.2" width="61.2" height="206.8" fill="#5f6f95" stroke="#222" stroke-width="0.7"/>
<text class="value" x="1245.4" y="145.2" text-anchor="middle">163,578</text>
<text class="tick" x="1245.4" y="378" text-anchor="middle">CEN5</text>
<text class="tick" x="1099.0" y="402" text-anchor="middle">Core centromere</text>
</svg>
