<svg xmlns="http://www.w3.org/2000/svg" width="1320" height="672" viewBox="0 0 1320 672">
<style>
text{font-family:Arial,Helvetica,sans-serif;fill:#1f1f1f}
.title{font-size:22px;font-weight:700}
.label{font-size:14px;font-weight:700}
.tick{font-size:11px;fill:#555}
.axis{stroke:#333;stroke-width:1}
.grid{stroke:#d8d8d8;stroke-width:1}
</style>
<rect x="0" y="0" width="100%" height="100%" fill="#ffffff"/>
<text class="title" x="660" y="34" text-anchor="middle">Local Cenhap Strength Across Core Centromeres</text>
<text class="tick" x="660" y="56" text-anchor="middle">Blue bars: non-redundant units per window; amber line: physical blocks per window</text>
<text class="label" x="72" y="112" text-anchor="end">CEN1</text>
<text class="tick" x="72" y="130" text-anchor="end">2.00 Mb</text>
<line class="axis" x1="88" y1="140" x2="1288" y2="140"/>
<line class="grid" x1="88" y1="78" x2="1288" y2="78"/>
<rect x="88.0" y="131.8" width="60.0" height="8.2" fill="#2f6f73" opacity="0.72"/>
<rect x="103.0" y="131.8" width="60.0" height="8.2" fill="#2f6f73" opacity="0.72"/>
<rect x="118.0" y="130.2" width="60.0" height="9.8" fill="#2f6f73" opacity="0.72"/>
<rect x="133.0" y="131.0" width="60.0" height="9.0" fill="#2f6f73" opacity="0.72"/>
<rect x="148.0" y="131.8" width="60.0" height="8.2" fill="#2f6f73" opacity="0.72"/>
<rect x="163.0" y="131.0" width="60.0" height="9.0" fill="#2f6f73" opacity="0.72"/>
<rect x="178.0" y="131.8" width="60.0" height="8.2" fill="#2f6f73" opacity="0.72"/>
<rect x="193.0" y="131.8" width="60.0" height="8.2" fill="#2f6f73" opacity="0.72"/>
<rect x="208.0" y="131.8" width="60.0" height="8.2" fill="#2f6f73" opacity="0.72"/>
<rect x="223.0" y="134.3" width="60.0" height="5.7" fill="#2f6f73" opacity="0.72"/>
<rect x="238.0" y="137.5" width="60.0" height="2.5" fill="#2f6f73" opacity="0.72"/>
<rect x="253.0" y="135.9" width="60.0" height="4.1" fill="#2f6f73" opacity="0.72"/>
<rect x="268.0" y="133.5" width="60.0" height="6.5" fill="#2f6f73" opacity="0.72"/>
<rect x="283.0" y="131.0" width="60.0" height="9.0" fill="#2f6f73" opacity="0.72"/>
<rect x="298.0" y="129.4" width="60.0" height="10.6" fill="#2f6f73" opacity="0.72"/>
<rect x="313.0" y="127.7" width="60.0" height="12.3" fill="#2f6f73" opacity="0.72"/>
<rect x="328.0" y="126.9" width="60.0" height="13.1" fill="#2f6f73" opacity="0.72"/>
<rect x="343.0" y="124.5" width="60.0" height="15.5" fill="#2f6f73" opacity="0.72"/>
<rect x="358.0" y="126.1" width="60.0" height="13.9" fill="#2f6f73" opacity="0.72"/>
<rect x="373.0" y="126.1" width="60.0" height="13.9" fill="#2f6f73" opacity="0.72"/>
<rect x="388.0" y="129.4" width="60.0" height="10.6" fill="#2f6f73" opacity="0.72"/>
<rect x="403.0" y="134.3" width="60.0" height="5.7" fill="#2f6f73" opacity="0.72"/>
<rect x="418.0" y="135.1" width="60.0" height="4.9" fill="#2f6f73" opacity="0.72"/>
<rect x="433.0" y="135.9" width="60.0" height="4.1" fill="#2f6f73" opacity="0.72"/>
<rect x="448.0" y="132.6" width="60.0" height="7.4" fill="#2f6f73" opacity="0.72"/>
<rect x="463.0" y="131.0" width="60.0" height="9.0" fill="#2f6f73" opacity="0.72"/>
<rect x="478.0" y="131.8" width="60.0" height="8.2" fill="#2f6f73" opacity="0.72"/>
<rect x="493.0" y="131.0" width="60.0" height="9.0" fill="#2f6f73" opacity="0.72"/>
<rect x="508.0" y="131.8" width="60.0" height="8.2" fill="#2f6f73" opacity="0.72"/>
<rect x="523.0" y="131.0" width="60.0" height="9.0" fill="#2f6f73" opacity="0.72"/>
<rect x="538.0" y="132.6" width="60.0" height="7.4" fill="#2f6f73" opacity="0.72"/>
<rect x="553.0" y="131.8" width="60.0" height="8.2" fill="#2f6f73" opacity="0.72"/>
<rect x="568.0" y="131.8" width="60.0" height="8.2" fill="#2f6f73" opacity="0.72"/>
<rect x="583.0" y="131.8" width="60.0" height="8.2" fill="#2f6f73" opacity="0.72"/>
<rect x="598.0" y="130.2" width="60.0" height="9.8" fill="#2f6f73" opacity="0.72"/>
<rect x="613.0" y="131.0" width="60.0" height="9.0" fill="#2f6f73" opacity="0.72"/>
<rect x="628.0" y="131.8" width="60.0" height="8.2" fill="#2f6f73" opacity="0.72"/>
<rect x="643.0" y="135.1" width="60.0" height="4.9" fill="#2f6f73" opacity="0.72"/>
<rect x="658.0" y="134.3" width="60.0" height="5.7" fill="#2f6f73" opacity="0.72"/>
<rect x="673.0" y="134.3" width="60.0" height="5.7" fill="#2f6f73" opacity="0.72"/>
<rect x="688.0" y="135.1" width="60.0" height="4.9" fill="#2f6f73" opacity="0.72"/>
<rect x="703.0" y="134.3" width="60.0" height="5.7" fill="#2f6f73" opacity="0.72"/>
<rect x="718.0" y="132.6" width="60.0" height="7.4" fill="#2f6f73" opacity="0.72"/>
<rect x="733.0" y="131.8" width="60.0" height="8.2" fill="#2f6f73" opacity="0.72"/>
<rect x="748.0" y="131.8" width="60.0" height="8.2" fill="#2f6f73" opacity="0.72"/>
<rect x="763.0" y="133.5" width="60.0" height="6.5" fill="#2f6f73" opacity="0.72"/>
<rect x="778.0" y="133.5" width="60.0" height="6.5" fill="#2f6f73" opacity="0.72"/>
<rect x="793.0" y="134.3" width="60.0" height="5.7" fill="#2f6f73" opacity="0.72"/>
<rect x="808.0" y="135.9" width="60.0" height="4.1" fill="#2f6f73" opacity="0.72"/>
<rect x="823.0" y="136.7" width="60.0" height="3.3" fill="#2f6f73" opacity="0.72"/>
<rect x="838.0" y="135.1" width="60.0" height="4.9" fill="#2f6f73" opacity="0.72"/>
<rect x="853.0" y="134.3" width="60.0" height="5.7" fill="#2f6f73" opacity="0.72"/>
<rect x="868.0" y="133.5" width="60.0" height="6.5" fill="#2f6f73" opacity="0.72"/>
<rect x="883.0" y="131.0" width="60.0" height="9.0" fill="#2f6f73" opacity="0.72"/>
<rect x="898.0" y="129.4" width="60.0" height="10.6" fill="#2f6f73" opacity="0.72"/>
<rect x="913.0" y="129.4" width="60.0" height="10.6" fill="#2f6f73" opacity="0.72"/>
<rect x="928.0" y="131.0" width="60.0" height="9.0" fill="#2f6f73" opacity="0.72"/>
<rect x="943.0" y="132.6" width="60.0" height="7.4" fill="#2f6f73" opacity="0.72"/>
<rect x="958.0" y="135.1" width="60.0" height="4.9" fill="#2f6f73" opacity="0.72"/>
<rect x="973.0" y="134.3" width="60.0" height="5.7" fill="#2f6f73" opacity="0.72"/>
<rect x="988.0" y="134.3" width="60.0" height="5.7" fill="#2f6f73" opacity="0.72"/>
<rect x="1003.0" y="135.9" width="60.0" height="4.1" fill="#2f6f73" opacity="0.72"/>
<rect x="1018.0" y="135.9" width="60.0" height="4.1" fill="#2f6f73" opacity="0.72"/>
<rect x="1033.0" y="136.7" width="60.0" height="3.3" fill="#2f6f73" opacity="0.72"/>
<rect x="1048.0" y="135.1" width="60.0" height="4.9" fill="#2f6f73" opacity="0.72"/>
<rect x="1063.0" y="133.5" width="60.0" height="6.5" fill="#2f6f73" opacity="0.72"/>
<rect x="1078.0" y="131.8" width="60.0" height="8.2" fill="#2f6f73" opacity="0.72"/>
<rect x="1093.0" y="131.8" width="60.0" height="8.2" fill="#2f6f73" opacity="0.72"/>
<rect x="1108.0" y="130.2" width="60.0" height="9.8" fill="#2f6f73" opacity="0.72"/>
<rect x="1123.0" y="131.0" width="60.0" height="9.0" fill="#2f6f73" opacity="0.72"/>
<rect x="1138.0" y="135.9" width="60.0" height="4.1" fill="#2f6f73" opacity="0.72"/>
<rect x="1153.0" y="134.3" width="60.0" height="5.7" fill="#2f6f73" opacity="0.72"/>
<rect x="1168.0" y="132.6" width="60.0" height="7.4" fill="#2f6f73" opacity="0.72"/>
<rect x="1183.0" y="132.6" width="60.0" height="7.4" fill="#2f6f73" opacity="0.72"/>
<rect x="1198.0" y="131.8" width="60.0" height="8.2" fill="#2f6f73" opacity="0.72"/>
<rect x="1213.0" y="132.6" width="60.0" height="7.4" fill="#2f6f73" opacity="0.72"/>
<rect x="1228.0" y="130.2" width="60.0" height="9.8" fill="#2f6f73" opacity="0.72"/>
<rect x="1228.0" y="130.2" width="60.0" height="9.8" fill="#2f6f73" opacity="0.72"/>
<polyline points="118.0,97.8 133.0,93.8 148.0,94.0 163.0,96.7 178.0,96.9 193.0,96.4 208.0,96.8 223.0,94.2 238.0,94.2 253.0,94.3 268.0,95.7 283.0,97.5 298.0,98.7 313.0,100.2 328.0,99.8 343.0,98.7 358.0,98.1 373.0,99.4 388.0,99.3 403.0,101.5 418.0,103.7 433.0,102.6 448.0,103.7 463.0,106.7 478.0,107.1 493.0,107.7 508.0,107.6 523.0,105.3 538.0,105.2 553.0,104.8 568.0,104.4 583.0,102.7 598.0,101.5 613.0,100.9 628.0,102.6 643.0,105.5 658.0,106.5 673.0,106.3 688.0,104.9 703.0,103.0 718.0,102.6 733.0,103.7 748.0,103.8 763.0,104.8 778.0,106.1 793.0,106.6 808.0,106.9 823.0,108.2 838.0,110.6 853.0,111.8 868.0,112.8 883.0,114.0 898.0,112.1 913.0,110.2 928.0,110.1 943.0,107.6 958.0,107.2 973.0,105.7 988.0,101.0 1003.0,96.3 1018.0,89.6 1033.0,86.1 1048.0,83.4 1063.0,82.7 1078.0,82.2 1093.0,82.0 1108.0,82.9 1123.0,86.9 1138.0,90.3 1153.0,94.2 1168.0,97.8 1183.0,95.9 1198.0,95.1 1213.0,92.8 1228.0,88.7 1243.0,89.8 1258.0,91.8 1258.0,91.8" fill="none" stroke="#b97833" stroke-width="2.2" stroke-linejoin="round" stroke-linecap="round"/>
<text class="tick" x="88" y="158" text-anchor="start">15,000,000</text>
<text class="tick" x="1288" y="158" text-anchor="end">17,000,000</text>
<text class="label" x="72" y="222" text-anchor="end">CEN2</text>
<text class="tick" x="72" y="240" text-anchor="end">1.50 Mb</text>
<line class="axis" x1="88" y1="250" x2="1288" y2="250"/>
<line class="grid" x1="88" y1="188" x2="1288" y2="188"/>
<rect x="88.0" y="237.7" width="80.0" height="12.3" fill="#2f6f73" opacity="0.72"/>
<rect x="108.0" y="241.0" width="80.0" height="9.0" fill="#2f6f73" opacity="0.72"/>
<rect x="128.0" y="239.4" width="80.0" height="10.6" fill="#2f6f73" opacity="0.72"/>
<rect x="148.0" y="238.6" width="80.0" height="11.4" fill="#2f6f73" opacity="0.72"/>
<rect x="168.0" y="235.3" width="80.0" height="14.7" fill="#2f6f73" opacity="0.72"/>
<rect x="188.0" y="236.9" width="80.0" height="13.1" fill="#2f6f73" opacity="0.72"/>
<rect x="208.0" y="238.6" width="80.0" height="11.4" fill="#2f6f73" opacity="0.72"/>
<rect x="228.0" y="236.9" width="80.0" height="13.1" fill="#2f6f73" opacity="0.72"/>
<rect x="248.0" y="235.3" width="80.0" height="14.7" fill="#2f6f73" opacity="0.72"/>
<rect x="268.0" y="233.7" width="80.0" height="16.3" fill="#2f6f73" opacity="0.72"/>
<rect x="288.0" y="236.1" width="80.0" height="13.9" fill="#2f6f73" opacity="0.72"/>
<rect x="308.0" y="237.7" width="80.0" height="12.3" fill="#2f6f73" opacity="0.72"/>
<rect x="328.0" y="244.3" width="80.0" height="5.7" fill="#2f6f73" opacity="0.72"/>
<rect x="348.0" y="245.1" width="80.0" height="4.9" fill="#2f6f73" opacity="0.72"/>
<rect x="368.0" y="243.5" width="80.0" height="6.5" fill="#2f6f73" opacity="0.72"/>
<rect x="388.0" y="241.0" width="80.0" height="9.0" fill="#2f6f73" opacity="0.72"/>
<rect x="408.0" y="239.4" width="80.0" height="10.6" fill="#2f6f73" opacity="0.72"/>
<rect x="428.0" y="239.4" width="80.0" height="10.6" fill="#2f6f73" opacity="0.72"/>
<rect x="448.0" y="242.6" width="80.0" height="7.4" fill="#2f6f73" opacity="0.72"/>
<rect x="468.0" y="244.3" width="80.0" height="5.7" fill="#2f6f73" opacity="0.72"/>
<rect x="488.0" y="246.7" width="80.0" height="3.3" fill="#2f6f73" opacity="0.72"/>
<rect x="508.0" y="247.5" width="80.0" height="2.5" fill="#2f6f73" opacity="0.72"/>
<rect x="528.0" y="245.1" width="80.0" height="4.9" fill="#2f6f73" opacity="0.72"/>
<rect x="548.0" y="245.9" width="80.0" height="4.1" fill="#2f6f73" opacity="0.72"/>
<rect x="568.0" y="245.1" width="80.0" height="4.9" fill="#2f6f73" opacity="0.72"/>
<rect x="588.0" y="242.6" width="80.0" height="7.4" fill="#2f6f73" opacity="0.72"/>
<rect x="608.0" y="243.5" width="80.0" height="6.5" fill="#2f6f73" opacity="0.72"/>
<rect x="628.0" y="242.6" width="80.0" height="7.4" fill="#2f6f73" opacity="0.72"/>
<rect x="648.0" y="243.5" width="80.0" height="6.5" fill="#2f6f73" opacity="0.72"/>
<rect x="668.0" y="244.3" width="80.0" height="5.7" fill="#2f6f73" opacity="0.72"/>
<rect x="688.0" y="244.3" width="80.0" height="5.7" fill="#2f6f73" opacity="0.72"/>
<rect x="708.0" y="245.9" width="80.0" height="4.1" fill="#2f6f73" opacity="0.72"/>
<rect x="728.0" y="245.9" width="80.0" height="4.1" fill="#2f6f73" opacity="0.72"/>
<rect x="748.0" y="245.1" width="80.0" height="4.9" fill="#2f6f73" opacity="0.72"/>
<rect x="768.0" y="243.5" width="80.0" height="6.5" fill="#2f6f73" opacity="0.72"/>
<rect x="788.0" y="243.5" width="80.0" height="6.5" fill="#2f6f73" opacity="0.72"/>
<rect x="808.0" y="237.7" width="80.0" height="12.3" fill="#2f6f73" opacity="0.72"/>
<rect x="828.0" y="236.9" width="80.0" height="13.1" fill="#2f6f73" opacity="0.72"/>
<rect x="848.0" y="239.4" width="80.0" height="10.6" fill="#2f6f73" opacity="0.72"/>
<rect x="868.0" y="238.6" width="80.0" height="11.4" fill="#2f6f73" opacity="0.72"/>
<rect x="888.0" y="240.2" width="80.0" height="9.8" fill="#2f6f73" opacity="0.72"/>
<rect x="908.0" y="240.2" width="80.0" height="9.8" fill="#2f6f73" opacity="0.72"/>
<rect x="928.0" y="240.2" width="80.0" height="9.8" fill="#2f6f73" opacity="0.72"/>
<rect x="948.0" y="240.2" width="80.0" height="9.8" fill="#2f6f73" opacity="0.72"/>
<rect x="968.0" y="241.0" width="80.0" height="9.0" fill="#2f6f73" opacity="0.72"/>
<rect x="988.0" y="241.8" width="80.0" height="8.2" fill="#2f6f73" opacity="0.72"/>
<rect x="1008.0" y="241.8" width="80.0" height="8.2" fill="#2f6f73" opacity="0.72"/>
<rect x="1028.0" y="241.8" width="80.0" height="8.2" fill="#2f6f73" opacity="0.72"/>
<rect x="1048.0" y="241.0" width="80.0" height="9.0" fill="#2f6f73" opacity="0.72"/>
<rect x="1068.0" y="241.0" width="80.0" height="9.0" fill="#2f6f73" opacity="0.72"/>
<rect x="1088.0" y="241.8" width="80.0" height="8.2" fill="#2f6f73" opacity="0.72"/>
<rect x="1108.0" y="241.8" width="80.0" height="8.2" fill="#2f6f73" opacity="0.72"/>
<rect x="1128.0" y="243.5" width="80.0" height="6.5" fill="#2f6f73" opacity="0.72"/>
<rect x="1148.0" y="242.6" width="80.0" height="7.4" fill="#2f6f73" opacity="0.72"/>
<rect x="1168.0" y="238.6" width="80.0" height="11.4" fill="#2f6f73" opacity="0.72"/>
<rect x="1188.0" y="235.3" width="80.0" height="14.7" fill="#2f6f73" opacity="0.72"/>
<rect x="1208.0" y="230.4" width="80.0" height="19.6" fill="#2f6f73" opacity="0.72"/>
<rect x="1208.0" y="230.4" width="80.0" height="19.6" fill="#2f6f73" opacity="0.72"/>
<polyline points="128.0,220.8 148.0,221.2 168.0,216.0 188.0,211.2 208.0,209.7 228.0,209.7 248.0,212.8 268.0,214.7 288.0,215.0 308.0,213.2 328.0,213.4 348.0,213.9 368.0,215.4 388.0,216.4 408.0,216.2 428.0,216.0 448.0,214.0 468.0,212.7 488.0,215.0 508.0,217.4 528.0,220.5 548.0,219.8 568.0,215.5 588.0,211.4 608.0,208.0 628.0,209.6 648.0,209.9 668.0,209.1 688.0,208.1 708.0,205.5 728.0,205.4 748.0,204.7 768.0,204.6 788.0,209.6 808.0,211.1 828.0,214.7 848.0,216.0 868.0,212.1 888.0,209.5 908.0,207.4 928.0,210.0 948.0,212.9 968.0,216.9 988.0,221.8 1008.0,220.9 1028.0,219.0 1048.0,218.3 1068.0,215.6 1088.0,215.9 1108.0,216.6 1128.0,216.1 1148.0,214.6 1168.0,215.0 1188.0,219.3 1208.0,219.3 1228.0,222.2 1248.0,220.5 1248.0,220.5" fill="none" stroke="#b97833" stroke-width="2.2" stroke-linejoin="round" stroke-linecap="round"/>
<text class="tick" x="88" y="268" text-anchor="start">4,800,000</text>
<text class="tick" x="1288" y="268" text-anchor="end">6,300,000</text>
<text class="label" x="72" y="332" text-anchor="end">CEN3</text>
<text class="tick" x="72" y="350" text-anchor="end">1.70 Mb</text>
<line class="axis" x1="88" y1="360" x2="1288" y2="360"/>
<line class="grid" x1="88" y1="298" x2="1288" y2="298"/>
<rect x="88.0" y="336.3" width="70.6" height="23.7" fill="#2f6f73" opacity="0.72"/>
<rect x="105.6" y="341.2" width="70.6" height="18.8" fill="#2f6f73" opacity="0.72"/>
<rect x="123.3" y="342.8" width="70.6" height="17.2" fill="#2f6f73" opacity="0.72"/>
<rect x="140.9" y="347.7" width="70.6" height="12.3" fill="#2f6f73" opacity="0.72"/>
<rect x="158.6" y="348.6" width="70.6" height="11.4" fill="#2f6f73" opacity="0.72"/>
<rect x="176.2" y="348.6" width="70.6" height="11.4" fill="#2f6f73" opacity="0.72"/>
<rect x="193.9" y="350.2" width="70.6" height="9.8" fill="#2f6f73" opacity="0.72"/>
<rect x="211.5" y="349.4" width="70.6" height="10.6" fill="#2f6f73" opacity="0.72"/>
<rect x="229.2" y="350.2" width="70.6" height="9.8" fill="#2f6f73" opacity="0.72"/>
<rect x="246.8" y="349.4" width="70.6" height="10.6" fill="#2f6f73" opacity="0.72"/>
<rect x="264.5" y="352.6" width="70.6" height="7.4" fill="#2f6f73" opacity="0.72"/>
<rect x="282.1" y="351.0" width="70.6" height="9.0" fill="#2f6f73" opacity="0.72"/>
<rect x="299.8" y="346.9" width="70.6" height="13.1" fill="#2f6f73" opacity="0.72"/>
<rect x="317.4" y="333.0" width="70.6" height="27.0" fill="#2f6f73" opacity="0.72"/>
<rect x="335.1" y="328.1" width="70.6" height="31.9" fill="#2f6f73" opacity="0.72"/>
<rect x="352.7" y="329.8" width="70.6" height="30.2" fill="#2f6f73" opacity="0.72"/>
<rect x="370.4" y="322.4" width="70.6" height="37.6" fill="#2f6f73" opacity="0.72"/>
<rect x="388.0" y="328.1" width="70.6" height="31.9" fill="#2f6f73" opacity="0.72"/>
<rect x="405.6" y="333.0" width="70.6" height="27.0" fill="#2f6f73" opacity="0.72"/>
<rect x="423.3" y="330.6" width="70.6" height="29.4" fill="#2f6f73" opacity="0.72"/>
<rect x="440.9" y="334.7" width="70.6" height="25.3" fill="#2f6f73" opacity="0.72"/>
<rect x="458.6" y="337.1" width="70.6" height="22.9" fill="#2f6f73" opacity="0.72"/>
<rect x="476.2" y="342.8" width="70.6" height="17.2" fill="#2f6f73" opacity="0.72"/>
<rect x="493.9" y="346.9" width="70.6" height="13.1" fill="#2f6f73" opacity="0.72"/>
<rect x="511.5" y="346.1" width="70.6" height="13.9" fill="#2f6f73" opacity="0.72"/>
<rect x="529.2" y="345.3" width="70.6" height="14.7" fill="#2f6f73" opacity="0.72"/>
<rect x="546.8" y="346.1" width="70.6" height="13.9" fill="#2f6f73" opacity="0.72"/>
<rect x="564.5" y="329.8" width="70.6" height="30.2" fill="#2f6f73" opacity="0.72"/>
<rect x="582.1" y="327.3" width="70.6" height="32.7" fill="#2f6f73" opacity="0.72"/>
<rect x="599.8" y="320.8" width="70.6" height="39.2" fill="#2f6f73" opacity="0.72"/>
<rect x="617.4" y="320.8" width="70.6" height="39.2" fill="#2f6f73" opacity="0.72"/>
<rect x="635.1" y="330.6" width="70.6" height="29.4" fill="#2f6f73" opacity="0.72"/>
<rect x="652.7" y="333.0" width="70.6" height="27.0" fill="#2f6f73" opacity="0.72"/>
<rect x="670.4" y="333.9" width="70.6" height="26.1" fill="#2f6f73" opacity="0.72"/>
<rect x="688.0" y="337.9" width="70.6" height="22.1" fill="#2f6f73" opacity="0.72"/>
<rect x="705.6" y="330.6" width="70.6" height="29.4" fill="#2f6f73" opacity="0.72"/>
<rect x="723.3" y="336.3" width="70.6" height="23.7" fill="#2f6f73" opacity="0.72"/>
<rect x="740.9" y="337.1" width="70.6" height="22.9" fill="#2f6f73" opacity="0.72"/>
<rect x="758.6" y="343.7" width="70.6" height="16.3" fill="#2f6f73" opacity="0.72"/>
<rect x="776.2" y="345.3" width="70.6" height="14.7" fill="#2f6f73" opacity="0.72"/>
<rect x="793.9" y="351.0" width="70.6" height="9.0" fill="#2f6f73" opacity="0.72"/>
<rect x="811.5" y="348.6" width="70.6" height="11.4" fill="#2f6f73" opacity="0.72"/>
<rect x="829.2" y="346.9" width="70.6" height="13.1" fill="#2f6f73" opacity="0.72"/>
<rect x="846.8" y="350.2" width="70.6" height="9.8" fill="#2f6f73" opacity="0.72"/>
<rect x="864.5" y="351.0" width="70.6" height="9.0" fill="#2f6f73" opacity="0.72"/>
<rect x="882.1" y="350.2" width="70.6" height="9.8" fill="#2f6f73" opacity="0.72"/>
<rect x="899.8" y="354.3" width="70.6" height="5.7" fill="#2f6f73" opacity="0.72"/>
<rect x="917.4" y="352.6" width="70.6" height="7.4" fill="#2f6f73" opacity="0.72"/>
<rect x="935.1" y="353.5" width="70.6" height="6.5" fill="#2f6f73" opacity="0.72"/>
<rect x="952.7" y="351.8" width="70.6" height="8.2" fill="#2f6f73" opacity="0.72"/>
<rect x="970.4" y="350.2" width="70.6" height="9.8" fill="#2f6f73" opacity="0.72"/>
<rect x="988.0" y="352.6" width="70.6" height="7.4" fill="#2f6f73" opacity="0.72"/>
<rect x="1005.6" y="350.2" width="70.6" height="9.8" fill="#2f6f73" opacity="0.72"/>
<rect x="1023.3" y="351.0" width="70.6" height="9.0" fill="#2f6f73" opacity="0.72"/>
<rect x="1040.9" y="354.3" width="70.6" height="5.7" fill="#2f6f73" opacity="0.72"/>
<rect x="1058.6" y="354.3" width="70.6" height="5.7" fill="#2f6f73" opacity="0.72"/>
<rect x="1076.2" y="355.1" width="70.6" height="4.9" fill="#2f6f73" opacity="0.72"/>
<rect x="1093.9" y="355.1" width="70.6" height="4.9" fill="#2f6f73" opacity="0.72"/>
<rect x="1111.5" y="355.1" width="70.6" height="4.9" fill="#2f6f73" opacity="0.72"/>
<rect x="1129.2" y="356.7" width="70.6" height="3.3" fill="#2f6f73" opacity="0.72"/>
<rect x="1146.8" y="353.5" width="70.6" height="6.5" fill="#2f6f73" opacity="0.72"/>
<rect x="1164.5" y="352.6" width="70.6" height="7.4" fill="#2f6f73" opacity="0.72"/>
<rect x="1182.1" y="350.2" width="70.6" height="9.8" fill="#2f6f73" opacity="0.72"/>
<rect x="1199.8" y="350.2" width="70.6" height="9.8" fill="#2f6f73" opacity="0.72"/>
<rect x="1217.4" y="351.8" width="70.6" height="8.2" fill="#2f6f73" opacity="0.72"/>
<rect x="1217.4" y="351.8" width="70.6" height="8.2" fill="#2f6f73" opacity="0.72"/>
<polyline points="123.3,333.1 140.9,332.2 158.6,330.5 176.2,328.4 193.9,326.3 211.5,326.3 229.2,325.7 246.8,326.5 264.5,328.4 282.1,328.0 299.8,327.8 317.4,327.0 335.1,326.9 352.7,329.0 370.4,327.8 388.0,325.9 405.6,322.7 423.3,319.8 440.9,317.7 458.6,318.1 476.2,320.0 493.9,321.7 511.5,325.8 529.2,327.8 546.8,328.0 564.5,328.0 582.1,327.2 599.8,328.2 617.4,327.2 635.1,323.9 652.7,323.2 670.4,319.6 688.0,318.4 705.6,321.3 723.3,322.8 740.9,327.4 758.6,331.2 776.2,333.0 793.9,333.9 811.5,331.1 829.2,329.9 846.8,328.0 864.5,326.0 882.1,324.4 899.8,324.1 917.4,325.2 935.1,325.7 952.7,326.8 970.4,325.9 988.0,325.2 1005.6,322.6 1023.3,320.9 1040.9,320.0 1058.6,317.3 1076.2,316.7 1093.9,318.1 1111.5,319.7 1129.2,320.8 1146.8,321.5 1164.5,319.6 1182.1,317.4 1199.8,315.2 1217.4,315.0 1235.1,315.6 1252.7,316.8 1252.7,316.8" fill="none" stroke="#b97833" stroke-width="2.2" stroke-linejoin="round" stroke-linecap="round"/>
<text class="tick" x="88" y="378" text-anchor="start">14,000,000</text>
<text class="tick" x="1288" y="378" text-anchor="end">15,700,000</text>
<text class="label" x="72" y="442" text-anchor="end">CEN4</text>
<text class="tick" x="72" y="460" text-anchor="end">1.40 Mb</text>
<line class="axis" x1="88" y1="470" x2="1288" y2="470"/>
<line class="grid" x1="88" y1="408" x2="1288" y2="408"/>
<rect x="88.0" y="464.3" width="85.7" height="5.7" fill="#2f6f73" opacity="0.72"/>
<rect x="109.4" y="463.5" width="85.7" height="6.5" fill="#2f6f73" opacity="0.72"/>
<rect x="130.9" y="457.7" width="85.7" height="12.3" fill="#2f6f73" opacity="0.72"/>
<rect x="152.3" y="458.6" width="85.7" height="11.4" fill="#2f6f73" opacity="0.72"/>
<rect x="173.7" y="456.1" width="85.7" height="13.9" fill="#2f6f73" opacity="0.72"/>
<rect x="195.1" y="456.1" width="85.7" height="13.9" fill="#2f6f73" opacity="0.72"/>
<rect x="216.6" y="457.7" width="85.7" height="12.3" fill="#2f6f73" opacity="0.72"/>
<rect x="238.0" y="454.5" width="85.7" height="15.5" fill="#2f6f73" opacity="0.72"/>
<rect x="259.4" y="452.0" width="85.7" height="18.0" fill="#2f6f73" opacity="0.72"/>
<rect x="280.9" y="451.2" width="85.7" height="18.8" fill="#2f6f73" opacity="0.72"/>
<rect x="302.3" y="452.0" width="85.7" height="18.0" fill="#2f6f73" opacity="0.72"/>
<rect x="323.7" y="453.7" width="85.7" height="16.3" fill="#2f6f73" opacity="0.72"/>
<rect x="345.1" y="456.1" width="85.7" height="13.9" fill="#2f6f73" opacity="0.72"/>
<rect x="366.6" y="460.2" width="85.7" height="9.8" fill="#2f6f73" opacity="0.72"/>
<rect x="388.0" y="459.4" width="85.7" height="10.6" fill="#2f6f73" opacity="0.72"/>
<rect x="409.4" y="461.8" width="85.7" height="8.2" fill="#2f6f73" opacity="0.72"/>
<rect x="430.9" y="464.3" width="85.7" height="5.7" fill="#2f6f73" opacity="0.72"/>
<rect x="452.3" y="460.2" width="85.7" height="9.8" fill="#2f6f73" opacity="0.72"/>
<rect x="473.7" y="459.4" width="85.7" height="10.6" fill="#2f6f73" opacity="0.72"/>
<rect x="495.1" y="461.0" width="85.7" height="9.0" fill="#2f6f73" opacity="0.72"/>
<rect x="516.6" y="458.6" width="85.7" height="11.4" fill="#2f6f73" opacity="0.72"/>
<rect x="538.0" y="459.4" width="85.7" height="10.6" fill="#2f6f73" opacity="0.72"/>
<rect x="559.4" y="461.8" width="85.7" height="8.2" fill="#2f6f73" opacity="0.72"/>
<rect x="580.9" y="463.5" width="85.7" height="6.5" fill="#2f6f73" opacity="0.72"/>
<rect x="602.3" y="464.3" width="85.7" height="5.7" fill="#2f6f73" opacity="0.72"/>
<rect x="623.7" y="460.2" width="85.7" height="9.8" fill="#2f6f73" opacity="0.72"/>
<rect x="645.1" y="461.0" width="85.7" height="9.0" fill="#2f6f73" opacity="0.72"/>
<rect x="666.6" y="460.2" width="85.7" height="9.8" fill="#2f6f73" opacity="0.72"/>
<rect x="688.0" y="459.4" width="85.7" height="10.6" fill="#2f6f73" opacity="0.72"/>
<rect x="709.4" y="460.2" width="85.7" height="9.8" fill="#2f6f73" opacity="0.72"/>
<rect x="730.9" y="458.6" width="85.7" height="11.4" fill="#2f6f73" opacity="0.72"/>
<rect x="752.3" y="458.6" width="85.7" height="11.4" fill="#2f6f73" opacity="0.72"/>
<rect x="773.7" y="456.9" width="85.7" height="13.1" fill="#2f6f73" opacity="0.72"/>
<rect x="795.1" y="458.6" width="85.7" height="11.4" fill="#2f6f73" opacity="0.72"/>
<rect x="816.6" y="457.7" width="85.7" height="12.3" fill="#2f6f73" opacity="0.72"/>
<rect x="838.0" y="456.1" width="85.7" height="13.9" fill="#2f6f73" opacity="0.72"/>
<rect x="859.4" y="458.6" width="85.7" height="11.4" fill="#2f6f73" opacity="0.72"/>
<rect x="880.9" y="456.1" width="85.7" height="13.9" fill="#2f6f73" opacity="0.72"/>
<rect x="902.3" y="457.7" width="85.7" height="12.3" fill="#2f6f73" opacity="0.72"/>
<rect x="923.7" y="459.4" width="85.7" height="10.6" fill="#2f6f73" opacity="0.72"/>
<rect x="945.1" y="458.6" width="85.7" height="11.4" fill="#2f6f73" opacity="0.72"/>
<rect x="966.6" y="456.9" width="85.7" height="13.1" fill="#2f6f73" opacity="0.72"/>
<rect x="988.0" y="459.4" width="85.7" height="10.6" fill="#2f6f73" opacity="0.72"/>
<rect x="1009.4" y="461.8" width="85.7" height="8.2" fill="#2f6f73" opacity="0.72"/>
<rect x="1030.9" y="462.6" width="85.7" height="7.4" fill="#2f6f73" opacity="0.72"/>
<rect x="1052.3" y="465.1" width="85.7" height="4.9" fill="#2f6f73" opacity="0.72"/>
<rect x="1073.7" y="465.9" width="85.7" height="4.1" fill="#2f6f73" opacity="0.72"/>
<rect x="1095.1" y="462.6" width="85.7" height="7.4" fill="#2f6f73" opacity="0.72"/>
<rect x="1116.6" y="463.5" width="85.7" height="6.5" fill="#2f6f73" opacity="0.72"/>
<rect x="1138.0" y="461.8" width="85.7" height="8.2" fill="#2f6f73" opacity="0.72"/>
<rect x="1159.4" y="462.6" width="85.7" height="7.4" fill="#2f6f73" opacity="0.72"/>
<rect x="1180.9" y="449.6" width="85.7" height="20.4" fill="#2f6f73" opacity="0.72"/>
<rect x="1202.3" y="449.6" width="85.7" height="20.4" fill="#2f6f73" opacity="0.72"/>
<rect x="1202.3" y="449.6" width="85.7" height="20.4" fill="#2f6f73" opacity="0.72"/>
<polyline points="130.9,420.1 152.3,419.4 173.7,418.8 195.1,417.7 216.6,419.0 238.0,419.3 259.4,423.4 280.9,427.4 302.3,427.5 323.7,426.5 345.1,421.0 366.6,416.4 388.0,419.4 409.4,425.9 430.9,434.5 452.3,437.8 473.7,436.9 495.1,432.1 516.6,426.5 538.0,428.8 559.4,427.7 580.9,428.4 602.3,429.2 623.7,428.3 645.1,430.6 666.6,429.2 688.0,426.9 709.4,425.3 730.9,422.3 752.3,423.8 773.7,425.6 795.1,426.3 816.6,427.0 838.0,428.7 859.4,430.9 880.9,430.9 902.3,433.1 923.7,430.6 945.1,430.2 966.6,432.3 988.0,432.5 1009.4,432.5 1030.9,429.5 1052.3,425.2 1073.7,420.4 1095.1,418.0 1116.6,417.8 1138.0,417.7 1159.4,418.4 1180.9,419.6 1202.3,418.3 1223.7,420.2 1245.1,422.7 1245.1,422.7" fill="none" stroke="#b97833" stroke-width="2.2" stroke-linejoin="round" stroke-linecap="round"/>
<text class="tick" x="88" y="488" text-anchor="start">4,800,000</text>
<text class="tick" x="1288" y="488" text-anchor="end">6,200,000</text>
<text class="label" x="72" y="552" text-anchor="end">CEN5</text>
<text class="tick" x="72" y="570" text-anchor="end">1.70 Mb</text>
<line class="axis" x1="88" y1="580" x2="1288" y2="580"/>
<line class="grid" x1="88" y1="518" x2="1288" y2="518"/>
<rect x="88.0" y="544.1" width="70.6" height="35.9" fill="#2f6f73" opacity="0.72"/>
<rect x="105.6" y="566.9" width="70.6" height="13.1" fill="#2f6f73" opacity="0.72"/>
<rect x="123.3" y="566.9" width="70.6" height="13.1" fill="#2f6f73" opacity="0.72"/>
<rect x="140.9" y="567.7" width="70.6" height="12.3" fill="#2f6f73" opacity="0.72"/>
<rect x="158.6" y="563.7" width="70.6" height="16.3" fill="#2f6f73" opacity="0.72"/>
<rect x="176.2" y="551.4" width="70.6" height="28.6" fill="#2f6f73" opacity="0.72"/>
<rect x="193.9" y="550.6" width="70.6" height="29.4" fill="#2f6f73" opacity="0.72"/>
<rect x="211.5" y="550.6" width="70.6" height="29.4" fill="#2f6f73" opacity="0.72"/>
<rect x="229.2" y="551.4" width="70.6" height="28.6" fill="#2f6f73" opacity="0.72"/>
<rect x="246.8" y="566.1" width="70.6" height="13.9" fill="#2f6f73" opacity="0.72"/>
<rect x="264.5" y="566.1" width="70.6" height="13.9" fill="#2f6f73" opacity="0.72"/>
<rect x="282.1" y="556.3" width="70.6" height="23.7" fill="#2f6f73" opacity="0.72"/>
<rect x="299.8" y="529.4" width="70.6" height="50.6" fill="#2f6f73" opacity="0.72"/>
<rect x="317.4" y="534.3" width="70.6" height="45.7" fill="#2f6f73" opacity="0.72"/>
<rect x="335.1" y="535.1" width="70.6" height="44.9" fill="#2f6f73" opacity="0.72"/>
<rect x="352.7" y="540.0" width="70.6" height="40.0" fill="#2f6f73" opacity="0.72"/>
<rect x="370.4" y="539.2" width="70.6" height="40.8" fill="#2f6f73" opacity="0.72"/>
<rect x="388.0" y="530.2" width="70.6" height="49.8" fill="#2f6f73" opacity="0.72"/>
<rect x="405.6" y="522.0" width="70.6" height="58.0" fill="#2f6f73" opacity="0.72"/>
<rect x="423.3" y="525.3" width="70.6" height="54.7" fill="#2f6f73" opacity="0.72"/>
<rect x="440.9" y="526.9" width="70.6" height="53.1" fill="#2f6f73" opacity="0.72"/>
<rect x="458.6" y="526.1" width="70.6" height="53.9" fill="#2f6f73" opacity="0.72"/>
<rect x="476.2" y="527.7" width="70.6" height="52.3" fill="#2f6f73" opacity="0.72"/>
<rect x="493.9" y="544.9" width="70.6" height="35.1" fill="#2f6f73" opacity="0.72"/>
<rect x="511.5" y="553.0" width="70.6" height="27.0" fill="#2f6f73" opacity="0.72"/>
<rect x="529.2" y="554.7" width="70.6" height="25.3" fill="#2f6f73" opacity="0.72"/>
<rect x="546.8" y="553.0" width="70.6" height="27.0" fill="#2f6f73" opacity="0.72"/>
<rect x="564.5" y="558.8" width="70.6" height="21.2" fill="#2f6f73" opacity="0.72"/>
<rect x="582.1" y="563.7" width="70.6" height="16.3" fill="#2f6f73" opacity="0.72"/>
<rect x="599.8" y="562.8" width="70.6" height="17.2" fill="#2f6f73" opacity="0.72"/>
<rect x="617.4" y="566.1" width="70.6" height="13.9" fill="#2f6f73" opacity="0.72"/>
<rect x="635.1" y="570.2" width="70.6" height="9.8" fill="#2f6f73" opacity="0.72"/>
<rect x="652.7" y="568.6" width="70.6" height="11.4" fill="#2f6f73" opacity="0.72"/>
<rect x="670.4" y="569.4" width="70.6" height="10.6" fill="#2f6f73" opacity="0.72"/>
<rect x="688.0" y="569.4" width="70.6" height="10.6" fill="#2f6f73" opacity="0.72"/>
<rect x="705.6" y="567.7" width="70.6" height="12.3" fill="#2f6f73" opacity="0.72"/>
<rect x="723.3" y="568.6" width="70.6" height="11.4" fill="#2f6f73" opacity="0.72"/>
<rect x="740.9" y="567.7" width="70.6" height="12.3" fill="#2f6f73" opacity="0.72"/>
<rect x="758.6" y="564.5" width="70.6" height="15.5" fill="#2f6f73" opacity="0.72"/>
<rect x="776.2" y="564.5" width="70.6" height="15.5" fill="#2f6f73" opacity="0.72"/>
<rect x="793.9" y="563.7" width="70.6" height="16.3" fill="#2f6f73" opacity="0.72"/>
<rect x="811.5" y="557.1" width="70.6" height="22.9" fill="#2f6f73" opacity="0.72"/>
<rect x="829.2" y="554.7" width="70.6" height="25.3" fill="#2f6f73" opacity="0.72"/>
<rect x="846.8" y="561.2" width="70.6" height="18.8" fill="#2f6f73" opacity="0.72"/>
<rect x="864.5" y="561.2" width="70.6" height="18.8" fill="#2f6f73" opacity="0.72"/>
<rect x="882.1" y="566.9" width="70.6" height="13.1" fill="#2f6f73" opacity="0.72"/>
<rect x="899.8" y="553.0" width="70.6" height="27.0" fill="#2f6f73" opacity="0.72"/>
<rect x="917.4" y="541.6" width="70.6" height="38.4" fill="#2f6f73" opacity="0.72"/>
<rect x="935.1" y="536.7" width="70.6" height="43.3" fill="#2f6f73" opacity="0.72"/>
<rect x="952.7" y="537.5" width="70.6" height="42.5" fill="#2f6f73" opacity="0.72"/>
<rect x="970.4" y="547.3" width="70.6" height="32.7" fill="#2f6f73" opacity="0.72"/>
<rect x="988.0" y="569.4" width="70.6" height="10.6" fill="#2f6f73" opacity="0.72"/>
<rect x="1005.6" y="567.7" width="70.6" height="12.3" fill="#2f6f73" opacity="0.72"/>
<rect x="1023.3" y="566.1" width="70.6" height="13.9" fill="#2f6f73" opacity="0.72"/>
<rect x="1040.9" y="566.1" width="70.6" height="13.9" fill="#2f6f73" opacity="0.72"/>
<rect x="1058.6" y="566.9" width="70.6" height="13.1" fill="#2f6f73" opacity="0.72"/>
<rect x="1076.2" y="566.1" width="70.6" height="13.9" fill="#2f6f73" opacity="0.72"/>
<rect x="1093.9" y="565.3" width="70.6" height="14.7" fill="#2f6f73" opacity="0.72"/>
<rect x="1111.5" y="564.5" width="70.6" height="15.5" fill="#2f6f73" opacity="0.72"/>
<rect x="1129.2" y="562.0" width="70.6" height="18.0" fill="#2f6f73" opacity="0.72"/>
<rect x="1146.8" y="559.6" width="70.6" height="20.4" fill="#2f6f73" opacity="0.72"/>
<rect x="1164.5" y="561.2" width="70.6" height="18.8" fill="#2f6f73" opacity="0.72"/>
<rect x="1182.1" y="560.4" width="70.6" height="19.6" fill="#2f6f73" opacity="0.72"/>
<rect x="1199.8" y="532.6" width="70.6" height="47.4" fill="#2f6f73" opacity="0.72"/>
<rect x="1217.4" y="536.7" width="70.6" height="43.3" fill="#2f6f73" opacity="0.72"/>
<rect x="1217.4" y="536.7" width="70.6" height="43.3" fill="#2f6f73" opacity="0.72"/>
<polyline points="123.3,540.1 140.9,543.8 158.6,548.0 176.2,551.5 193.9,551.5 211.5,552.4 229.2,552.6 246.8,550.7 264.5,550.5 282.1,546.0 299.8,544.3 317.4,548.2 335.1,550.7 352.7,550.3 370.4,549.3 388.0,545.4 405.6,540.5 423.3,541.6 440.9,545.1 458.6,547.5 476.2,548.0 493.9,545.7 511.5,544.0 529.2,542.5 546.8,545.6 564.5,550.2 582.1,548.0 599.8,543.1 617.4,538.3 635.1,535.3 652.7,537.6 670.4,542.2 688.0,545.0 705.6,546.9 723.3,546.5 740.9,546.0 758.6,544.5 776.2,542.2 793.9,539.6 811.5,538.4 829.2,541.1 846.8,544.4 864.5,546.5 882.1,545.4 899.8,542.2 917.4,537.8 935.1,537.5 952.7,538.7 970.4,538.9 988.0,539.8 1005.6,538.9 1023.3,538.0 1040.9,537.3 1058.6,536.3 1076.2,536.5 1093.9,535.1 1111.5,536.1 1129.2,537.7 1146.8,537.3 1164.5,541.0 1182.1,541.5 1199.8,540.5 1217.4,539.4 1235.1,539.9 1252.7,541.5 1252.7,541.5" fill="none" stroke="#b97833" stroke-width="2.2" stroke-linejoin="round" stroke-linecap="round"/>
<text class="tick" x="88" y="598" text-anchor="start">12,700,000</text>
<text class="tick" x="1288" y="598" text-anchor="end">14,400,000</text>
</svg>
