<svg xmlns="http://www.w3.org/2000/svg" width="1320" height="666" viewBox="0 0 1320 666">
<style>
text{font-family:Arial,Helvetica,sans-serif;fill:#1f1f1f}
.title{font-size:22px;font-weight:700}
.label{font-size:14px;font-weight:700}
.tick{font-size:11px;fill:#555}
.axis{stroke:#333;stroke-width:1}
.grid{stroke:#d8d8d8;stroke-width:1}
</style>
<rect x="0" y="0" width="100%" height="100%" fill="#ffffff"/>
<text class="title" x="660" y="34" text-anchor="middle">Cenhap-Defining K-mers by Fixed Core-CEN Bin</text>
<text class="tick" x="660" y="56" text-anchor="middle">Bar height is distinct selected k-mers per 200,000 bp bin</text>
<text class="label" x="72" y="110" text-anchor="end">CEN1</text>
<text class="tick" x="72" y="128" text-anchor="end">2.00 Mb</text>
<line class="axis" x1="88" y1="140" x2="1284" y2="140"/>
<line class="grid" x1="88" y1="80" x2="1284" y2="80"/>
<rect x="88.0" y="108.6" width="118.6" height="31.4" fill="#2f6f73" opacity="0.82"><title>CEN1 bin 1: 1,203 distinct selected k-mers, 27,311 map hits</title></rect>
<text class="tick" x="147.3" y="104.6" text-anchor="middle">1,203</text>
<rect x="207.6" y="111.4" width="118.6" height="28.6" fill="#2f6f73" opacity="0.82"><title>CEN1 bin 2: 1,097 distinct selected k-mers, 30,313 map hits</title></rect>
<text class="tick" x="266.9" y="107.4" text-anchor="middle">1,097</text>
<rect x="327.2" y="108.6" width="118.6" height="31.4" fill="#2f6f73" opacity="0.82"><title>CEN1 bin 3: 1,205 distinct selected k-mers, 24,276 map hits</title></rect>
<text class="tick" x="386.5" y="104.6" text-anchor="middle">1,205</text>
<rect x="446.8" y="120.4" width="118.6" height="19.6" fill="#2f6f73" opacity="0.82"><title>CEN1 bin 4: 750 distinct selected k-mers, 21,055 map hits</title></rect>
<text class="tick" x="506.1" y="116.4" text-anchor="middle">750</text>
<rect x="566.4" y="111.8" width="118.6" height="28.2" fill="#2f6f73" opacity="0.82"><title>CEN1 bin 5: 1,082 distinct selected k-mers, 22,089 map hits</title></rect>
<text class="tick" x="625.7" y="107.8" text-anchor="middle">1,082</text>
<rect x="686.0" y="117.8" width="118.6" height="22.2" fill="#2f6f73" opacity="0.82"><title>CEN1 bin 6: 851 distinct selected k-mers, 22,932 map hits</title></rect>
<text class="tick" x="745.3" y="113.8" text-anchor="middle">851</text>
<rect x="805.6" y="117.7" width="118.6" height="22.3" fill="#2f6f73" opacity="0.82"><title>CEN1 bin 7: 853 distinct selected k-mers, 14,482 map hits</title></rect>
<text class="tick" x="864.9" y="113.7" text-anchor="middle">853</text>
<rect x="925.2" y="108.4" width="118.6" height="31.6" fill="#2f6f73" opacity="0.82"><title>CEN1 bin 8: 1,212 distinct selected k-mers, 29,941 map hits</title></rect>
<text class="tick" x="984.5" y="104.4" text-anchor="middle">1,212</text>
<rect x="1044.8" y="105.4" width="118.6" height="34.6" fill="#2f6f73" opacity="0.82"><title>CEN1 bin 9: 1,327 distinct selected k-mers, 39,068 map hits</title></rect>
<text class="tick" x="1104.1" y="101.4" text-anchor="middle">1,327</text>
<rect x="1164.4" y="104.9" width="118.6" height="35.1" fill="#2f6f73" opacity="0.82"><title>CEN1 bin 10: 1,346 distinct selected k-mers, 36,503 map hits</title></rect>
<text class="tick" x="1223.7" y="100.9" text-anchor="middle">1,346</text>
<text class="tick" x="88" y="158" text-anchor="start">15,000,000</text>
<text class="tick" x="1284" y="158" text-anchor="end">17,000,000</text>
<text class="label" x="72" y="218" text-anchor="end">CEN2</text>
<text class="tick" x="72" y="236" text-anchor="end">1.50 Mb</text>
<line class="axis" x1="88" y1="248" x2="1284" y2="248"/>
<line class="grid" x1="88" y1="188" x2="1284" y2="188"/>
<rect x="88.0" y="224.5" width="158.5" height="23.5" fill="#2f6f73" opacity="0.82"><title>CEN2 bin 1: 900 distinct selected k-mers, 21,795 map hits</title></rect>
<text class="tick" x="167.2" y="220.5" text-anchor="middle">900</text>
<rect x="247.5" y="231.6" width="158.5" height="16.4" fill="#2f6f73" opacity="0.82"><title>CEN2 bin 2: 628 distinct selected k-mers, 22,281 map hits</title></rect>
<text class="tick" x="326.7" y="227.6" text-anchor="middle">628</text>
<rect x="406.9" y="227.3" width="158.5" height="20.7" fill="#2f6f73" opacity="0.82"><title>CEN2 bin 3: 795 distinct selected k-mers, 22,721 map hits</title></rect>
<text class="tick" x="486.2" y="223.3" text-anchor="middle">795</text>
<rect x="566.4" y="232.0" width="158.5" height="16.0" fill="#2f6f73" opacity="0.82"><title>CEN2 bin 4: 613 distinct selected k-mers, 30,644 map hits</title></rect>
<text class="tick" x="645.6" y="228.0" text-anchor="middle">613</text>
<rect x="725.9" y="228.2" width="158.5" height="19.8" fill="#2f6f73" opacity="0.82"><title>CEN2 bin 5: 759 distinct selected k-mers, 26,020 map hits</title></rect>
<text class="tick" x="805.1" y="224.2" text-anchor="middle">759</text>
<rect x="885.3" y="228.1" width="158.5" height="19.9" fill="#2f6f73" opacity="0.82"><title>CEN2 bin 6: 761 distinct selected k-mers, 20,726 map hits</title></rect>
<text class="tick" x="964.6" y="224.1" text-anchor="middle">761</text>
<rect x="1044.8" y="225.4" width="158.5" height="22.6" fill="#2f6f73" opacity="0.82"><title>CEN2 bin 7: 865 distinct selected k-mers, 22,734 map hits</title></rect>
<text class="tick" x="1124.0" y="221.4" text-anchor="middle">865</text>
<rect x="1204.3" y="231.3" width="78.7" height="16.7" fill="#2f6f73" opacity="0.82"><title>CEN2 bin 8: 639 distinct selected k-mers, 7,740 map hits</title></rect>
<text class="tick" x="1243.6" y="227.3" text-anchor="middle">639</text>
<text class="tick" x="88" y="266" text-anchor="start">4,800,000</text>
<text class="tick" x="1284" y="266" text-anchor="end">6,300,000</text>
<text class="label" x="72" y="326" text-anchor="end">CEN3</text>
<text class="tick" x="72" y="344" text-anchor="end">1.70 Mb</text>
<line class="axis" x1="88" y1="356" x2="1284" y2="356"/>
<line class="grid" x1="88" y1="296" x2="1284" y2="296"/>
<rect x="88.0" y="326.6" width="139.7" height="29.4" fill="#2f6f73" opacity="0.82"><title>CEN3 bin 1: 1,126 distinct selected k-mers, 19,251 map hits</title></rect>
<text class="tick" x="157.9" y="322.6" text-anchor="middle">1,126</text>
<rect x="228.7" y="331.4" width="139.7" height="24.6" fill="#2f6f73" opacity="0.82"><title>CEN3 bin 2: 944 distinct selected k-mers, 25,438 map hits</title></rect>
<text class="tick" x="298.6" y="327.4" text-anchor="middle">944</text>
<rect x="369.4" y="298.0" width="139.7" height="58.0" fill="#2f6f73" opacity="0.82"><title>CEN3 bin 3: 2,223 distinct selected k-mers, 28,553 map hits</title></rect>
<text class="tick" x="439.3" y="294.0" text-anchor="middle">2,223</text>
<rect x="510.1" y="304.4" width="139.7" height="51.6" fill="#2f6f73" opacity="0.82"><title>CEN3 bin 4: 1,979 distinct selected k-mers, 26,071 map hits</title></rect>
<text class="tick" x="580.0" y="300.4" text-anchor="middle">1,979</text>
<rect x="650.8" y="313.9" width="139.7" height="42.1" fill="#2f6f73" opacity="0.82"><title>CEN3 bin 5: 1,612 distinct selected k-mers, 25,304 map hits</title></rect>
<text class="tick" x="720.7" y="309.9" text-anchor="middle">1,612</text>
<rect x="791.5" y="335.5" width="139.7" height="20.5" fill="#2f6f73" opacity="0.82"><title>CEN3 bin 6: 785 distinct selected k-mers, 19,269 map hits</title></rect>
<text class="tick" x="861.4" y="331.5" text-anchor="middle">785</text>
<rect x="932.2" y="339.7" width="139.7" height="16.3" fill="#2f6f73" opacity="0.82"><title>CEN3 bin 7: 626 distinct selected k-mers, 21,169 map hits</title></rect>
<text class="tick" x="1002.1" y="335.7" text-anchor="middle">626</text>
<rect x="1072.9" y="338.8" width="139.7" height="17.2" fill="#2f6f73" opacity="0.82"><title>CEN3 bin 8: 659 distinct selected k-mers, 24,674 map hits</title></rect>
<text class="tick" x="1142.8" y="334.8" text-anchor="middle">659</text>
<rect x="1213.6" y="347.0" width="69.4" height="9.0" fill="#2f6f73" opacity="0.82"><title>CEN3 bin 9: 344 distinct selected k-mers, 11,909 map hits</title></rect>
<text class="tick" x="1248.3" y="343.0" text-anchor="middle">344</text>
<text class="tick" x="88" y="374" text-anchor="start">14,000,000</text>
<text class="tick" x="1284" y="374" text-anchor="end">15,700,000</text>
<text class="label" x="72" y="434" text-anchor="end">CEN4</text>
<text class="tick" x="72" y="452" text-anchor="end">1.40 Mb</text>
<line class="axis" x1="88" y1="464" x2="1284" y2="464"/>
<line class="grid" x1="88" y1="404" x2="1284" y2="404"/>
<rect x="88.0" y="440.3" width="169.9" height="23.7" fill="#2f6f73" opacity="0.82"><title>CEN4 bin 1: 910 distinct selected k-mers, 29,189 map hits</title></rect>
<text class="tick" x="172.9" y="436.3" text-anchor="middle">910</text>
<rect x="258.9" y="437.2" width="169.9" height="26.8" fill="#2f6f73" opacity="0.82"><title>CEN4 bin 2: 1,029 distinct selected k-mers, 25,281 map hits</title></rect>
<text class="tick" x="343.8" y="433.2" text-anchor="middle">1,029</text>
<rect x="429.7" y="438.2" width="169.9" height="25.8" fill="#2f6f73" opacity="0.82"><title>CEN4 bin 3: 988 distinct selected k-mers, 22,237 map hits</title></rect>
<text class="tick" x="514.6" y="434.2" text-anchor="middle">988</text>
<rect x="600.6" y="440.0" width="169.9" height="24.0" fill="#2f6f73" opacity="0.82"><title>CEN4 bin 4: 918 distinct selected k-mers, 27,552 map hits</title></rect>
<text class="tick" x="685.5" y="436.0" text-anchor="middle">918</text>
<rect x="771.4" y="440.2" width="169.9" height="23.8" fill="#2f6f73" opacity="0.82"><title>CEN4 bin 5: 911 distinct selected k-mers, 26,349 map hits</title></rect>
<text class="tick" x="856.4" y="436.2" text-anchor="middle">911</text>
<rect x="942.3" y="432.5" width="169.9" height="31.5" fill="#2f6f73" opacity="0.82"><title>CEN4 bin 6: 1,207 distinct selected k-mers, 27,585 map hits</title></rect>
<text class="tick" x="1027.2" y="428.5" text-anchor="middle">1,207</text>
<rect x="1113.1" y="434.5" width="169.9" height="29.5" fill="#2f6f73" opacity="0.82"><title>CEN4 bin 7: 1,129 distinct selected k-mers, 28,533 map hits</title></rect>
<text class="tick" x="1198.1" y="430.5" text-anchor="middle">1,129</text>
<text class="tick" x="88" y="482" text-anchor="start">4,800,000</text>
<text class="tick" x="1284" y="482" text-anchor="end">6,200,000</text>
<text class="label" x="72" y="542" text-anchor="end">CEN5</text>
<text class="tick" x="72" y="560" text-anchor="end">1.70 Mb</text>
<line class="axis" x1="88" y1="572" x2="1284" y2="572"/>
<line class="grid" x1="88" y1="512" x2="1284" y2="512"/>
<rect x="88.0" y="528.6" width="139.7" height="43.4" fill="#2f6f73" opacity="0.82"><title>CEN5 bin 1: 1,662 distinct selected k-mers, 19,878 map hits</title></rect>
<text class="tick" x="157.9" y="524.6" text-anchor="middle">1,662</text>
<rect x="228.7" y="524.3" width="139.7" height="47.7" fill="#2f6f73" opacity="0.82"><title>CEN5 bin 2: 1,828 distinct selected k-mers, 16,445 map hits</title></rect>
<text class="tick" x="298.6" y="520.3" text-anchor="middle">1,828</text>
<rect x="369.4" y="524.2" width="139.7" height="47.8" fill="#2f6f73" opacity="0.82"><title>CEN5 bin 3: 1,833 distinct selected k-mers, 19,228 map hits</title></rect>
<text class="tick" x="439.3" y="520.2" text-anchor="middle">1,833</text>
<rect x="510.1" y="532.2" width="139.7" height="39.8" fill="#2f6f73" opacity="0.82"><title>CEN5 bin 4: 1,525 distinct selected k-mers, 17,550 map hits</title></rect>
<text class="tick" x="580.0" y="528.2" text-anchor="middle">1,525</text>
<rect x="650.8" y="537.1" width="139.7" height="34.9" fill="#2f6f73" opacity="0.82"><title>CEN5 bin 5: 1,337 distinct selected k-mers, 21,611 map hits</title></rect>
<text class="tick" x="720.7" y="533.1" text-anchor="middle">1,337</text>
<rect x="791.5" y="536.8" width="139.7" height="35.2" fill="#2f6f73" opacity="0.82"><title>CEN5 bin 6: 1,350 distinct selected k-mers, 20,712 map hits</title></rect>
<text class="tick" x="861.4" y="532.8" text-anchor="middle">1,350</text>
<rect x="932.2" y="522.5" width="139.7" height="49.5" fill="#2f6f73" opacity="0.82"><title>CEN5 bin 7: 1,896 distinct selected k-mers, 21,974 map hits</title></rect>
<text class="tick" x="1002.1" y="518.5" text-anchor="middle">1,896</text>
<rect x="1072.9" y="530.6" width="139.7" height="41.4" fill="#2f6f73" opacity="0.82"><title>CEN5 bin 8: 1,588 distinct selected k-mers, 26,249 map hits</title></rect>
<text class="tick" x="1142.8" y="526.6" text-anchor="middle">1,588</text>
<rect x="1213.6" y="535.0" width="69.4" height="37.0" fill="#2f6f73" opacity="0.82"><title>CEN5 bin 9: 1,417 distinct selected k-mers, 12,754 map hits</title></rect>
<text class="tick" x="1248.3" y="531.0" text-anchor="middle">1,417</text>
<text class="tick" x="88" y="590" text-anchor="start">12,700,000</text>
<text class="tick" x="1284" y="590" text-anchor="end">14,400,000</text>
</svg>
