<svg xmlns="http://www.w3.org/2000/svg" width="1320" height="530" viewBox="0 0 1320 530">
<style>text{font-family:Arial,Helvetica,sans-serif;fill:#1f1f1f}.title{font-size:22px;font-weight:700}.tick{font-size:11px;fill:#555}.legend{font-size:12px}.axis{stroke:#333;stroke-width:1}.grid{stroke:#d8d8d8;stroke-width:1}</style>
<rect x="0" y="0" width="100%" height="100%" fill="#fff"/>
<text class="title" x="660" y="34" text-anchor="middle">CU Size Distribution</text>
<text class="tick" x="660" y="56" text-anchor="middle">Size is distinct selected k-mers per CU</text>
<line class="grid" x1="78" y1="458.0" x2="1284" y2="458.0"/>
<text class="tick" x="70" y="462.0" text-anchor="end">0</text>
<line class="grid" x1="78" y1="364.6" x2="1284" y2="364.6"/>
<text class="tick" x="70" y="368.6" text-anchor="end">9</text>
<line class="grid" x1="78" y1="271.2" x2="1284" y2="271.2"/>
<text class="tick" x="70" y="275.2" text-anchor="end">18</text>
<line class="grid" x1="78" y1="167.4" x2="1284" y2="167.4"/>
<text class="tick" x="70" y="171.4" text-anchor="end">28</text>
<line class="grid" x1="78" y1="74.0" x2="1284" y2="74.0"/>
<text class="tick" x="70" y="78.0" text-anchor="end">37</text>
<line class="axis" x1="78" y1="458" x2="1284" y2="458"/>
<line class="axis" x1="78" y1="74" x2="78" y2="458"/>
<rect x="78.0" y="364.6" width="20.5" height="93.4" fill="#2f6f73" opacity="0.86"><title>CEN1 1: 9 CU</title></rect>
<rect x="101.5" y="333.5" width="20.5" height="124.5" fill="#9b5d2e" opacity="0.86"><title>CEN2 1: 12 CU</title></rect>
<rect x="125.0" y="271.2" width="20.5" height="186.8" fill="#5f6f95" opacity="0.86"><title>CEN3 1: 18 CU</title></rect>
<rect x="148.5" y="354.2" width="20.5" height="103.8" fill="#8a6d3b" opacity="0.86"><title>CEN4 1: 10 CU</title></rect>
<rect x="172.0" y="208.9" width="20.5" height="249.1" fill="#4f7f4f" opacity="0.86"><title>CEN5 1: 24 CU</title></rect>
<text class="tick" x="135.2" y="478" text-anchor="middle">1</text>
<rect x="214.4" y="375.0" width="20.5" height="83.0" fill="#2f6f73" opacity="0.86"><title>CEN1 2: 8 CU</title></rect>
<rect x="237.9" y="364.6" width="20.5" height="93.4" fill="#9b5d2e" opacity="0.86"><title>CEN2 2: 9 CU</title></rect>
<rect x="261.4" y="395.7" width="20.5" height="62.3" fill="#5f6f95" opacity="0.86"><title>CEN3 2: 6 CU</title></rect>
<rect x="284.9" y="406.1" width="20.5" height="51.9" fill="#8a6d3b" opacity="0.86"><title>CEN4 2: 5 CU</title></rect>
<rect x="308.4" y="333.5" width="20.5" height="124.5" fill="#4f7f4f" opacity="0.86"><title>CEN5 2: 12 CU</title></rect>
<text class="tick" x="271.7" y="478" text-anchor="middle">2</text>
<rect x="350.9" y="354.2" width="20.5" height="103.8" fill="#2f6f73" opacity="0.86"><title>CEN1 3-5: 10 CU</title></rect>
<rect x="374.4" y="271.2" width="20.5" height="186.8" fill="#9b5d2e" opacity="0.86"><title>CEN2 3-5: 18 CU</title></rect>
<rect x="397.9" y="250.4" width="20.5" height="207.6" fill="#5f6f95" opacity="0.86"><title>CEN3 3-5: 20 CU</title></rect>
<rect x="421.4" y="364.6" width="20.5" height="93.4" fill="#8a6d3b" opacity="0.86"><title>CEN4 3-5: 9 CU</title></rect>
<rect x="444.8" y="136.3" width="20.5" height="321.7" fill="#4f7f4f" opacity="0.86"><title>CEN5 3-5: 31 CU</title></rect>
<text class="tick" x="408.1" y="478" text-anchor="middle">3-5</text>
<rect x="487.3" y="291.9" width="20.5" height="166.1" fill="#2f6f73" opacity="0.86"><title>CEN1 6-10: 16 CU</title></rect>
<rect x="510.8" y="302.3" width="20.5" height="155.7" fill="#9b5d2e" opacity="0.86"><title>CEN2 6-10: 15 CU</title></rect>
<rect x="534.3" y="260.8" width="20.5" height="197.2" fill="#5f6f95" opacity="0.86"><title>CEN3 6-10: 19 CU</title></rect>
<rect x="557.8" y="260.8" width="20.5" height="197.2" fill="#8a6d3b" opacity="0.86"><title>CEN4 6-10: 19 CU</title></rect>
<rect x="581.3" y="74.0" width="20.5" height="384.0" fill="#4f7f4f" opacity="0.86"><title>CEN5 6-10: 37 CU</title></rect>
<text class="tick" x="544.6" y="478" text-anchor="middle">6-10</text>
<rect x="623.8" y="312.7" width="20.5" height="145.3" fill="#2f6f73" opacity="0.86"><title>CEN1 11-20: 14 CU</title></rect>
<rect x="647.3" y="302.3" width="20.5" height="155.7" fill="#9b5d2e" opacity="0.86"><title>CEN2 11-20: 15 CU</title></rect>
<rect x="670.8" y="157.0" width="20.5" height="301.0" fill="#5f6f95" opacity="0.86"><title>CEN3 11-20: 29 CU</title></rect>
<rect x="694.2" y="250.4" width="20.5" height="207.6" fill="#8a6d3b" opacity="0.86"><title>CEN4 11-20: 20 CU</title></rect>
<rect x="717.7" y="84.4" width="20.5" height="373.6" fill="#4f7f4f" opacity="0.86"><title>CEN5 11-20: 36 CU</title></rect>
<text class="tick" x="681.0" y="478" text-anchor="middle">11-20</text>
<rect x="760.2" y="406.1" width="20.5" height="51.9" fill="#2f6f73" opacity="0.86"><title>CEN1 21-50: 5 CU</title></rect>
<rect x="783.7" y="447.6" width="20.5" height="10.4" fill="#9b5d2e" opacity="0.86"><title>CEN2 21-50: 1 CU</title></rect>
<rect x="807.2" y="281.6" width="20.5" height="176.4" fill="#5f6f95" opacity="0.86"><title>CEN3 21-50: 17 CU</title></rect>
<rect x="830.7" y="364.6" width="20.5" height="93.4" fill="#8a6d3b" opacity="0.86"><title>CEN4 21-50: 9 CU</title></rect>
<rect x="854.2" y="146.6" width="20.5" height="311.4" fill="#4f7f4f" opacity="0.86"><title>CEN5 21-50: 30 CU</title></rect>
<text class="tick" x="817.4" y="478" text-anchor="middle">21-50</text>
<rect x="896.7" y="458.0" width="20.5" height="0.0" fill="#2f6f73" opacity="0.86"><title>CEN1 51-100: 0 CU</title></rect>
<rect x="920.2" y="458.0" width="20.5" height="0.0" fill="#9b5d2e" opacity="0.86"><title>CEN2 51-100: 0 CU</title></rect>
<rect x="943.6" y="416.5" width="20.5" height="41.5" fill="#5f6f95" opacity="0.86"><title>CEN3 51-100: 4 CU</title></rect>
<rect x="967.1" y="447.6" width="20.5" height="10.4" fill="#8a6d3b" opacity="0.86"><title>CEN4 51-100: 1 CU</title></rect>
<rect x="990.6" y="437.2" width="20.5" height="20.8" fill="#4f7f4f" opacity="0.86"><title>CEN5 51-100: 2 CU</title></rect>
<text class="tick" x="953.9" y="478" text-anchor="middle">51-100</text>
<rect x="1033.1" y="458.0" width="20.5" height="0.0" fill="#2f6f73" opacity="0.86"><title>CEN1 101-500: 0 CU</title></rect>
<rect x="1056.6" y="458.0" width="20.5" height="0.0" fill="#9b5d2e" opacity="0.86"><title>CEN2 101-500: 0 CU</title></rect>
<rect x="1080.1" y="447.6" width="20.5" height="10.4" fill="#5f6f95" opacity="0.86"><title>CEN3 101-500: 1 CU</title></rect>
<rect x="1103.6" y="447.6" width="20.5" height="10.4" fill="#8a6d3b" opacity="0.86"><title>CEN4 101-500: 1 CU</title></rect>
<rect x="1127.1" y="458.0" width="20.5" height="0.0" fill="#4f7f4f" opacity="0.86"><title>CEN5 101-500: 0 CU</title></rect>
<text class="tick" x="1090.3" y="478" text-anchor="middle">101-500</text>
<rect x="1169.6" y="447.6" width="20.5" height="10.4" fill="#2f6f73" opacity="0.86"><title>CEN1 501+: 1 CU</title></rect>
<rect x="1193.0" y="447.6" width="20.5" height="10.4" fill="#9b5d2e" opacity="0.86"><title>CEN2 501+: 1 CU</title></rect>
<rect x="1216.5" y="447.6" width="20.5" height="10.4" fill="#5f6f95" opacity="0.86"><title>CEN3 501+: 1 CU</title></rect>
<rect x="1240.0" y="447.6" width="20.5" height="10.4" fill="#8a6d3b" opacity="0.86"><title>CEN4 501+: 1 CU</title></rect>
<rect x="1263.5" y="447.6" width="20.5" height="10.4" fill="#4f7f4f" opacity="0.86"><title>CEN5 501+: 1 CU</title></rect>
<text class="tick" x="1226.8" y="478" text-anchor="middle">501+</text>
<rect x="78" y="498" width="12" height="12" fill="#2f6f73"/>
<text class="legend" x="96" y="508">CEN1</text>
<rect x="174" y="498" width="12" height="12" fill="#9b5d2e"/>
<text class="legend" x="192" y="508">CEN2</text>
<rect x="270" y="498" width="12" height="12" fill="#5f6f95"/>
<text class="legend" x="288" y="508">CEN3</text>
<rect x="366" y="498" width="12" height="12" fill="#8a6d3b"/>
<text class="legend" x="384" y="508">CEN4</text>
<rect x="462" y="498" width="12" height="12" fill="#4f7f4f"/>
<text class="legend" x="480" y="508">CEN5</text>
</svg>
